<svg width="716" height="284" viewBox="0 0 716 284" fill="none" xmlns="http://www.w3.org/2000/svg">
<g clip-path="url(#clip0_1175_15)">
<path fill-rule="evenodd" clip-rule="evenodd" d="M30.3759 62.3495C29.9283 58.2435 32.1035 57.7927 33.2471 58.0806C33.2471 58.0806 52.1641 66.0876 89.9411 66.7447C127.718 67.4018 148.508 58.3612 148.508 58.3612C149.653 58.0789 151.826 58.5403 151.358 62.644C150.89 66.7478 150.175 78.6044 149.875 84.0198L171.617 84.0731C174.287 83.9844 179.223 85.5166 177.604 92.3541C177.274 93.745 176.791 96.1251 176.171 99.1798C172.979 114.897 166.157 148.49 157.992 157.301C152.253 164.128 144.521 167.53 138.51 168.941C133.503 170.424 128.281 170.163 126.475 170.072C126.217 170.06 126.028 170.05 125.92 170.05C121.9 176.027 111.627 188.943 102.692 192.799C99.7795 193.846 99.8024 194.9 99.8212 195.729C99.8226 195.797 99.824 195.863 99.824 195.927C100.281 203.625 102.223 220.847 106.324 228.155C106.869 229.246 107.022 230.075 107.126 230.645C107.241 231.267 107.298 231.578 107.747 231.579L113.182 231.592C113.754 231.594 115.127 231.597 116.04 232.739C116.528 233.35 117.383 233.337 118.314 233.321C119.56 233.301 120.941 233.278 121.757 234.749C122.629 236.323 122.447 238.005 122.354 238.87C122.333 239.059 122.318 239.209 122.318 239.311L130.899 239.332C131.948 239.334 134.045 239.853 134.04 241.905L133.998 259.009C133.997 259.32 133.975 259.575 133.956 259.784C133.874 260.719 133.874 260.719 136.282 260.725L143.72 260.743C144.198 260.744 145.15 260.804 145.144 263.312L145.125 271.009C145.124 271.579 145.121 272.719 142.547 272.713L38.1569 272.459C35.5822 272.452 35.585 271.312 35.5863 270.742L35.6053 263.045C35.6114 260.537 36.5644 260.482 37.0419 260.483L44.4798 260.502C46.8879 260.507 46.8879 260.507 46.8102 259.571C46.7929 259.363 46.7718 259.108 46.7726 258.797L46.8145 241.693C46.8195 239.641 48.9187 239.132 49.9676 239.135L58.5498 239.156C58.55 239.054 58.5346 238.904 58.5152 238.715C58.4259 237.849 58.2528 236.166 59.1331 234.597C59.9554 233.13 61.3365 233.159 62.5825 233.186C63.5133 233.205 64.3686 233.223 64.8595 232.615C65.7777 231.477 67.1508 231.48 67.723 231.482L73.1582 231.495C73.6066 231.496 73.6657 231.185 73.7831 230.564C73.8909 229.995 74.048 229.166 74.5972 228.078C78.7347 220.79 80.7603 203.578 81.256 195.882C81.256 195.818 81.2573 195.752 81.2594 195.685V195.684C81.2817 194.855 81.3102 193.801 78.4031 192.739C69.4868 188.841 59.2771 175.874 55.2868 169.878C55.1796 169.878 54.9924 169.886 54.7355 169.898H54.7341H54.7314H54.7311C52.9252 169.98 47.7022 170.215 42.7023 168.707C36.6984 167.267 28.9827 163.828 23.2781 156.972C15.1562 148.122 8.49874 114.496 5.38402 98.7642C4.77859 95.706 4.30698 93.3239 3.98451 91.9316C2.39928 85.0865 7.3425 83.5778 10.0123 83.6796L31.7539 83.7323C31.481 78.3155 30.8236 66.4555 30.3759 62.3495ZM15.8692 93.2096C12.5247 93.1514 13.3189 97.0477 13.9232 100.012C14.0016 100.398 14.0768 100.767 14.1394 101.109C14.684 104.092 17.2139 116.387 23.87 136.168C30.5262 155.949 43.3923 157.388 48.9935 155.636C45.1593 147.375 37.0682 120.935 35.4378 111.788C33.8075 102.64 31.7795 93.4867 29.393 93.4451L15.8692 93.2096ZM167.476 101.189C168.132 98.2357 168.994 94.3539 165.649 94.3539H152.123C149.736 94.3539 147.549 103.472 145.758 112.589C143.968 121.707 135.415 148.001 131.436 156.194C137.006 158.044 149.895 156.828 156.897 137.167C163.898 117.504 166.643 105.255 167.24 102.282C167.309 101.941 167.39 101.573 167.476 101.19V101.189ZM110.091 131.845L90.5897 144.074L71.1736 131.711L90.532 159.837V159.845L90.5348 159.842L90.5375 159.846V159.837L110.091 131.845ZM90.7808 90.4423V90.4243L90.7753 90.4333L90.7704 90.4243V90.4416L71.0755 123.977L90.6119 136.186V136.192L90.6175 136.188L90.6223 136.192V136.186L110.243 124.112L90.7808 90.4423Z" fill="#FFB636"/>
<path d="M150.553 58.9576C150.505 64.4307 123.929 68.6367 91.1928 68.3521C58.4572 68.0674 31.1631 63.386 31.211 57.9129C31.259 52.4398 58.6308 48.2476 91.3665 48.5322C124.102 48.8169 150.601 53.4845 150.553 58.9576Z" fill="#FFD469"/>
<path d="M133.37 78.4676C136.294 78.4676 136.817 78.4676 142.12 76.6182C141.463 80.1342 138.004 106.786 136.817 110.969C133.643 122.145 130.06 139.418 125.414 142.756C124.531 143.39 120.641 142.756 119.193 141.827C117.745 140.897 122.762 131.315 128.862 110.969C132.309 89.0373 131.248 79.5247 133.37 78.4676Z" fill="#FFCC4E"/>
<path d="M291.634 50.3947C327.769 50.3947 357.061 80.0714 357.061 116.679V154.792C357.061 191.4 327.769 221.076 291.634 221.076C285.958 221.076 280.451 220.344 275.2 218.967L275.2 223.467C275.2 250.247 253.668 272.008 226.941 272.44L226.13 272.447V126.622L226.205 126.62L226.207 116.679C226.207 80.0714 255.5 50.3947 291.634 50.3947ZM584.633 50.3947C620.789 50.3947 650.099 80.2404 650.099 117.058V155.389C650.099 192.206 620.789 222.052 584.633 222.052C548.477 222.052 519.167 192.206 519.167 155.389V117.058C519.167 80.2404 548.477 50.3947 584.633 50.3947ZM438.115 47.2451C474.27 47.2451 503.58 77.0908 503.58 113.908V152.239C503.58 189.056 474.27 218.902 438.115 218.902C401.959 218.902 372.649 189.056 372.649 152.239V113.908C372.649 77.0908 401.959 47.2451 438.115 47.2451ZM715.562 0V169.116C715.562 196.337 693.677 218.456 666.511 218.895L665.686 218.902V49.7861C665.686 22.29 688.017 0 715.562 0ZM584.633 100.392C575.594 100.392 568.267 107.854 568.267 117.058V155.389C568.267 164.593 575.594 172.055 584.633 172.055C593.672 172.055 601 164.593 601 155.389V117.058C601 107.854 593.672 100.392 584.633 100.392ZM291.634 100.108C282.601 100.108 275.277 107.527 275.277 116.679V154.792C275.277 163.944 282.601 171.363 291.634 171.363C300.668 171.363 307.991 163.944 307.991 154.792V116.679C307.991 107.527 300.668 100.108 291.634 100.108ZM438.115 97.2423C429.076 97.2423 421.748 104.704 421.748 113.908V152.239C421.748 161.444 429.076 168.905 438.115 168.905C447.154 168.905 454.481 161.444 454.481 152.239V113.908C454.481 104.704 447.154 97.2423 438.115 97.2423Z" fill="#4C249F"/>
<path d="M532.356 264.46H530.995C529.641 264.46 528.453 263.198 528.453 261.232V251.944H531.355C532.706 251.944 533.737 251.053 533.737 249.786C533.737 249.145 533.497 248.576 533.059 248.168C532.622 247.763 532.024 247.548 531.355 247.548H528.453V242.34C528.453 240.918 527.388 239.865 525.951 239.865C524.514 239.865 523.45 240.918 523.45 242.34V247.548H522.109C521.44 247.548 520.841 247.763 520.405 248.168C519.966 248.576 519.727 249.145 519.727 249.786C519.727 251.053 520.757 251.944 522.109 251.944H523.45V261.232C523.45 265.856 526.672 269.41 530.995 269.41H531.715C533.271 269.41 534.578 268.431 534.578 266.935C534.578 265.578 533.655 264.46 532.356 264.46Z" fill="#4C249F"/>
<path fill-rule="evenodd" clip-rule="evenodd" d="M562.531 258.102V258.1C562.49 251.379 557.711 246.598 551.023 246.598C547.66 246.598 544.766 247.781 542.713 249.828C540.66 251.875 539.476 254.757 539.476 258.102C539.476 261.429 540.661 264.301 542.714 266.343C544.766 268.385 547.66 269.568 551.023 269.568C554.368 269.568 557.252 268.384 559.3 266.343C561.347 264.301 562.531 261.429 562.531 258.102ZM551.023 251.152C552.975 251.152 554.611 251.873 555.763 253.085C556.916 254.3 557.608 256.035 557.608 258.102C557.608 260.17 556.916 261.895 555.764 263.099C554.613 264.301 552.977 265.013 551.023 265.013C549.071 265.013 547.422 264.301 546.262 263.097C545.1 261.893 544.399 260.168 544.399 258.102C544.399 253.994 547.163 251.152 551.023 251.152Z" fill="#4C249F"/>
<path fill-rule="evenodd" clip-rule="evenodd" d="M579.957 278.4C576.019 278.4 572.426 276.84 570.04 273.859C569.596 273.321 569.429 272.693 569.537 272.091C569.643 271.494 570.01 270.968 570.548 270.605L570.552 270.602C571.751 269.812 573.201 270.168 573.988 271.187C575.322 272.871 577.369 273.846 580.037 273.846C581.832 273.846 583.468 273.19 584.657 271.951C585.845 270.711 586.621 268.849 586.621 266.38V266.066C584.852 268.272 582.279 269.568 579.236 269.568C576.099 269.568 573.403 268.376 571.493 266.329C569.586 264.287 568.488 261.419 568.488 258.102C568.488 254.757 569.673 251.875 571.726 249.828C573.779 247.781 576.672 246.598 580.037 246.598C586.724 246.598 591.503 251.379 591.545 258.1V258.102V266.657C591.545 273.165 586.821 278.4 579.957 278.4ZM580.037 265.013C578.083 265.013 576.436 264.301 575.275 263.097C574.113 261.893 573.412 260.168 573.412 258.102C573.412 253.994 576.175 251.152 580.037 251.152C581.987 251.152 583.624 251.873 584.776 253.085C585.929 254.3 586.621 256.035 586.621 258.102C586.621 260.17 585.929 261.895 584.777 263.099C583.626 264.301 581.989 265.013 580.037 265.013Z" fill="#4C249F"/>
<path fill-rule="evenodd" clip-rule="evenodd" d="M616.893 263.74C616.013 263.023 614.716 263.052 613.753 263.765C612.753 264.498 610.936 265.172 609.41 265.172C605.78 265.172 603.1 263.066 602.336 259.984H616.935C617.588 259.984 618.177 259.767 618.606 259.362C619.037 258.955 619.276 258.386 619.276 257.746C619.276 254.523 618.317 251.732 616.506 249.742C614.69 247.745 612.057 246.598 608.809 246.598C605.522 246.598 602.687 247.784 600.675 249.832C598.664 251.879 597.501 254.76 597.501 258.102C597.501 261.435 598.73 264.309 600.85 266.349C602.969 268.388 605.95 269.568 609.41 269.568C611.954 269.568 615.067 268.547 616.964 267.046C617.513 266.625 617.811 266.046 617.79 265.418C617.77 264.799 617.443 264.213 616.903 263.749L616.893 263.74ZM608.809 250.993C610.49 250.993 611.812 251.554 612.772 252.485C613.624 253.313 614.216 254.457 614.5 255.826H602.379C602.722 254.455 603.396 253.316 604.354 252.491C605.443 251.554 606.933 250.993 608.809 250.993Z" fill="#4C249F"/>
<path d="M635.312 264.46H633.951C632.598 264.46 631.409 263.198 631.409 261.232V251.944H634.311C635.662 251.944 636.693 251.053 636.693 249.786C636.693 249.145 636.453 248.576 636.015 248.168C635.578 247.763 634.979 247.548 634.311 247.548H631.409V242.34C631.409 240.918 630.345 239.865 628.907 239.865C627.47 239.865 626.405 240.918 626.405 242.34V247.548H625.064C624.396 247.548 623.797 247.763 623.361 248.168C622.922 248.576 622.683 249.145 622.683 249.786C622.683 251.053 623.714 251.944 625.064 251.944H626.405V261.232C626.405 265.856 629.628 269.41 633.951 269.41H634.671C636.226 269.41 637.533 268.431 637.533 266.935C637.533 265.578 636.611 264.46 635.312 264.46Z" fill="#4C249F"/>
<path d="M654.94 246.558C652.523 246.558 650.332 247.306 648.635 248.611V240.003C648.635 239.291 648.381 238.655 647.919 238.198C647.456 237.74 646.814 237.488 646.093 237.488C645.373 237.488 644.731 237.74 644.268 238.198C643.806 238.655 643.552 239.291 643.552 240.003V266.935C643.552 267.647 643.806 268.282 644.268 268.74C644.731 269.198 645.373 269.449 646.093 269.449C646.814 269.449 647.456 269.198 647.919 268.74C648.381 268.282 648.635 267.647 648.635 266.935V255.766C648.635 253.22 650.934 251.192 654.139 251.192C655.87 251.192 657.325 251.671 658.344 252.625C659.357 253.575 660.004 255.055 660.004 257.192V266.935C660.004 268.356 661.108 269.449 662.545 269.449C663.982 269.449 665.087 268.356 665.087 266.935V257.192C665.087 253.799 664.011 251.129 662.174 249.308C660.339 247.486 657.792 246.558 654.94 246.558Z" fill="#4C249F"/>
<path fill-rule="evenodd" clip-rule="evenodd" d="M691.19 259.984H676.592C677.356 263.066 680.035 265.172 683.665 265.172C685.192 265.172 687.009 264.498 688.01 263.765C688.971 263.052 690.269 263.023 691.149 263.74L691.158 263.749C691.698 264.213 692.025 264.799 692.046 265.418C692.067 266.046 691.769 266.625 691.22 267.046C689.322 268.547 686.21 269.568 683.665 269.568C680.206 269.568 677.224 268.388 675.105 266.349C672.986 264.309 671.757 261.435 671.757 258.102C671.757 254.76 672.919 251.879 674.93 249.832C676.943 247.784 679.777 246.598 683.065 246.598C686.312 246.598 688.946 247.745 690.762 249.742C692.572 251.732 693.532 254.523 693.532 257.746C693.532 258.386 693.293 258.955 692.861 259.362C692.433 259.767 691.843 259.984 691.19 259.984ZM683.065 250.993C684.745 250.993 686.067 251.554 687.027 252.485C687.879 253.313 688.471 254.457 688.756 255.826H676.635C676.977 254.455 677.651 253.316 678.61 252.491C679.698 251.554 681.189 250.993 683.065 250.993Z" fill="#4C249F"/>
<path d="M710.967 246.518C708.582 246.518 706.372 247.38 704.717 248.811C704.655 248.253 704.46 247.767 704.092 247.401C703.633 246.945 702.98 246.756 702.243 246.756C701.506 246.756 700.866 246.961 700.408 247.416C699.949 247.87 699.74 248.506 699.74 249.231V266.935C699.74 267.675 699.949 268.315 700.408 268.768C700.873 269.219 701.52 269.41 702.243 269.41C702.994 269.41 703.64 269.206 704.092 268.748C704.551 268.29 704.745 267.652 704.745 266.935V255.37C704.745 253.755 705.586 252.528 707.053 251.797C708.534 251.054 710.661 250.821 713.143 251.3C713.734 251.433 714.338 251.424 714.86 251.17C715.395 250.907 715.77 250.418 715.937 249.747C716.055 249.283 716.007 248.821 715.805 248.401C715.597 247.987 715.256 247.64 714.811 247.366C713.935 246.822 712.621 246.518 710.967 246.518Z" fill="#4C249F"/>
</g>
<defs>
<clipPath id="clip0_1175_15">
<rect width="716" height="284" fill="white"/>
</clipPath>
</defs>
</svg>
