<svg width="459" height="459" viewBox="0 0 459 459" fill="none" xmlns="http://www.w3.org/2000/svg">
<g clip-path="url(#clip0_533_2)">
<path d="M336.688 343.962C314.716 343.961 296.84 326.086 296.84 304.114V237.938C296.84 215.966 314.716 198.091 336.688 198.091H440.518C441.147 198.091 441.772 198.11 442.394 198.138V132.216C442.394 115.247 428.638 101.491 411.669 101.491H30.726C13.756 101.49 0 115.246 0 132.215V409.836C0 426.805 13.756 440.562 30.726 440.562H411.669C428.638 440.562 442.394 426.806 442.394 409.836V343.914C441.772 343.943 441.147 343.962 440.518 343.962H336.688Z" fill="white"/>
<path d="M440.518 219.926H336.688C326.74 219.926 318.675 227.991 318.675 237.939V304.115C318.675 314.063 326.74 322.128 336.688 322.128H440.518C450.466 322.128 458.531 314.064 458.531 304.115V237.939C458.531 227.99 450.466 219.926 440.518 219.926ZM372.466 297.025C358.107 297.025 346.467 285.385 346.467 271.026C346.467 256.667 358.107 245.027 372.466 245.027C386.825 245.027 398.465 256.667 398.465 271.026C398.465 285.385 386.825 297.025 372.466 297.025Z" fill="white"/>
<path d="M358.169 45.2093C351.295 24.4033 328.856 13.1093 308.051 19.9833L151.958 71.5523H366.872L358.169 45.2093Z" fill="white"/>
</g>
<defs>
<clipPath id="clip0_533_2">
<rect width="458.531" height="458.531" fill="white"/>
</clipPath>
</defs>
</svg>
